<svg xmlns="http://www.w3.org/2000/svg" xmlns:xlink="http://www.w3.org/1999/xlink" xml:space="preserve" version="1.1" x="0px" y="0px" viewBox="0 0 100 100" width="400px" height="400px"><g style="fill: #e3e3e3"><path d="M60,51.25L40,51.25C37.933,51.25,36.25,52.932,36.25,55L36.25,75C36.25,77.068,37.933,78.75,40,78.75L60,78.75C62.067,78.75,63.75,77.068,63.75,75L63.75,55C63.75,52.932,62.067,51.25,60,51.25ZM40,53.75L59.116,53.75L57.345,55.521C56.851,55.193,56.261,55,55.625,55L44.375,55C42.652,55,41.25,56.402,41.25,58.125L41.25,69.375C41.25,70.011,41.443,70.601,41.771,71.095L38.75,74.116L38.75,55C38.75,54.311,39.311,53.75,40,53.75ZM42.5,69.375L42.5,58.125C42.5,57.091,43.341,56.25,44.375,56.25L55.625,56.25C56.659,56.25,57.5,57.091,57.5,58.125L57.5,69.375C57.5,70.409,56.659,71.25,55.625,71.25L44.375,71.25C43.341,71.25,42.5,70.409,42.5,69.375Z" stroke="none"></path><path d="M60,21.25L40,21.25C37.933,21.25,36.25,22.932,36.25,25L36.25,45C36.25,47.068,37.933,48.75,40,48.75L60,48.75C62.067,48.75,63.75,47.068,63.75,45L63.75,25C63.75,22.932,62.067,21.25,60,21.25ZM40,23.75L59.116,23.75L57.345,25.521C56.851,25.193,56.261,25,55.625,25L44.375,25C42.652,25,41.25,26.402,41.25,28.125L41.25,39.375C41.25,40.011,41.443,40.601,41.771,41.095L38.75,44.116L38.75,25C38.75,24.311,39.311,23.75,40,23.75ZM42.5,39.375L42.5,28.125C42.5,27.091,43.341,26.25,44.375,26.25L55.625,26.25C56.659,26.25,57.5,27.091,57.5,28.125L57.5,39.375C57.5,40.409,56.659,41.25,55.625,41.25L44.375,41.25C43.341,41.25,42.5,40.409,42.5,39.375Z" stroke="none"></path><path d="M30,51.25L10,51.25C7.933,51.25,6.25,52.932,6.25,55L6.25,75C6.25,77.068,7.933,78.75,10,78.75L30,78.75C32.067,78.75,33.75,77.068,33.75,75L33.75,55C33.75,52.932,32.067,51.25,30,51.25ZM10,53.75L29.116,53.75L27.345,55.521C26.851,55.193,26.261,55,25.625,55L14.375,55C12.652,55,11.25,56.402,11.25,58.125L11.25,69.375C11.25,70.011,11.443,70.601,11.771,71.095L8.75,74.116L8.75,55C8.75,54.311,9.311,53.75,10,53.75ZM12.5,69.375L12.5,58.125C12.5,57.091,13.341,56.25,14.375,56.25L25.625,56.25C26.659,56.25,27.5,57.091,27.5,58.125L27.5,69.375C27.5,70.409,26.659,71.25,25.625,71.25L14.375,71.25C13.341,71.25,12.5,70.409,12.5,69.375Z" stroke="none"></path><path d="M90,51.25L70,51.25C67.933,51.25,66.25,52.932,66.25,55L66.25,75C66.25,77.068,67.933,78.75,70,78.75L90,78.75C92.067,78.75,93.75,77.068,93.75,75L93.75,55C93.75,52.932,92.067,51.25,90,51.25ZM70,53.75L89.116,53.75L87.345,55.521C86.851,55.193,86.261,55,85.625,55L74.375,55C72.652,55,71.25,56.402,71.25,58.125L71.25,69.375C71.25,70.011,71.443,70.601,71.771,71.095L68.75,74.116L68.75,55C68.75,54.311,69.311,53.75,70,53.75ZM72.5,69.375L72.5,58.125C72.5,57.091,73.341,56.25,74.375,56.25L85.625,56.25C86.659,56.25,87.5,57.091,87.5,58.125L87.5,69.375C87.5,70.409,86.659,71.25,85.625,71.25L74.375,71.25C73.341,71.25,72.5,70.409,72.5,69.375Z" stroke="none"></path><path d="M46.875,38.75C47.22,38.75,47.5,38.47,47.5,38.125L47.5,33.75L48.125,33.75C48.326,33.75,48.515,33.653,48.632,33.49C48.749,33.327,48.781,33.118,48.718,32.927L47.468,29.177C47.298,28.667,46.452,28.667,46.282,29.177L45.032,32.927C44.969,33.118,45.001,33.327,45.118,33.49C45.235,33.653,45.424,33.75,45.625,33.75L46.25,33.75L46.25,38.125C46.25,38.47,46.53,38.75,46.875,38.75Z" stroke="none"></path><path d="M46.875,68.75C47.144,68.75,47.383,68.578,47.468,68.323L48.718,64.573C48.781,64.382,48.749,64.173,48.632,64.01C48.515,63.847,48.326,63.75,48.125,63.75L47.5,63.75L47.5,59.375C47.5,59.03,47.22,58.75,46.875,58.75S46.25,59.03,46.25,59.375L46.25,63.75L45.625,63.75C45.424,63.75,45.235,63.847,45.118,64.01C45.001,64.173,44.969,64.382,45.032,64.573L46.282,68.323C46.367,68.578,46.606,68.75,46.875,68.75Z" stroke="none"></path><path d="M78.75,66.25L78.75,66.875C78.75,67.076,78.847,67.265,79.01,67.382C79.117,67.46,79.245,67.5,79.375,67.5C79.441,67.5,79.508,67.489,79.572,67.468L83.322,66.218C83.578,66.133,83.75,65.894,83.75,65.625S83.578,65.117,83.322,65.032L79.572,63.782C79.382,63.719,79.172,63.75,79.009,63.868C78.846,63.985,78.749,64.174,78.749,64.375L78.749,65L74.374,65C74.029,65,73.749,65.28,73.749,65.625S74.029,66.25,74.374,66.25L78.75,66.25Z" stroke="none"></path><path d="M17.928,67.468C17.992,67.489,18.059,67.5,18.125,67.5C18.255,67.5,18.383,67.459,18.49,67.382C18.653,67.265,18.75,67.076,18.75,66.875L18.75,66.25L23.125,66.25C23.47,66.25,23.75,65.97,23.75,65.625S23.47,65,23.125,65L18.75,65L18.75,64.375C18.75,64.174,18.653,63.985,18.49,63.868C18.328,63.75,18.118,63.719,17.927,63.782L14.177,65.032C13.921,65.117,13.749,65.356,13.749,65.625S13.921,66.133,14.177,66.218L17.928,67.468Z" stroke="none"></path></g></svg>
